#!OML:ASF F:\VICON\USERDATA\INSTALL\rory3\rory3.ASF
:FULLY-SPECIFIED
:DEGREES
1784
root 8.02645 17.6691 -10.4041 -361.276 -17.1138 0.887823
lowerback 15.0246 3.3611 2.54817
upperback 1.4045 4.87703 0.297611
thorax -6.7249 2.30174 -2.11195
lowerneck -18.4867 1.08807 -9.20123
upperneck 39.0926 3.86038 3.35311
head 17.1626 0.651392 3.90341
rclavicle -1.60022e-014 5.56597e-015
rhumerus -32.0183 -12.0516 -77.3053
rradius 35.1386
rwrist 6.29283
rhand -19.3187 10.4936
rfingers 7.12502
rthumb 6.99751 -19.3708
lclavicle -1.60022e-014 5.56597e-015
lhumerus -28.9968 6.80086 83.6463
lradius 36.0988
lwrist -0.291324
lhand -21.3065 22.1924
lfingers 7.12502
lthumb 5.07836 52.1116
rfemur -1.87507 -6.4209 20.0149
rtibia 30.4309
rfoot -21.0735 -7.83023
rtoes -9.02485
lfemur -22.32 5.48074 -13.8151
ltibia 51.3692
lfoot -6.7849 -20.0536
ltoes -20.5498
1785
root 8.06979 17.6833 -10.4027 -361.387 -17.6246 0.910068
lowerback 15.1286 3.28067 2.47883
upperback 1.44114 4.76089 0.305669
thorax -6.75515 2.24624 -2.04751
lowerneck -18.2892 1.11769 -9.20225
upperneck 38.9879 3.85848 3.36693
head 17.0536 0.656529 3.89655
rclavicle 7.55382e-015 -2.38542e-015
rhumerus -31.8725 -12.1081 -77.2083
rradius 35.1268
rwrist 6.21691
rhand -19.3502 10.2761
rfingers 7.12502
rthumb 6.96706 -19.5893
lclavicle 7.55382e-015 -2.38542e-015
lhumerus -29.2013 6.84511 83.5827
lradius 36.3443
lwrist -0.462694
lhand -20.6529 22.2758
lfingers 7.12502
lthumb 5.7095 52.1789
rfemur -1.64514 -6.16935 19.802
rtibia 30.0035
rfoot -20.8399 -7.47861
rtoes -9.04063
lfemur -22.1192 4.61675 -13.229
ltibia 50.9459
lfoot -7.29201 -18.4014
ltoes -21.481
1786
root 8.11617 17.7003 -10.4033 -361.394 -18.1902 0.867713
lowerback 15.3876 3.23684 2.43222
upperback 1.31859 4.70718 0.332553
thorax -7.03855 2.21326 -2.00537
lowerneck -18.0433 1.11955 -9.16858
upperneck 38.9115 3.80228 3.36568
head 16.9549 0.641188 3.86717
rclavicle 1.95803e-014 -2.38542e-015
rhumerus -31.9569 -12.2078 -77.0562
rradius 35.1681
rwrist 6.04326
rhand -19.3814 10.189
rfingers 7.12502
rthumb 6.93702 -19.6773
lclavicle 1.95803e-014 -2.38542e-015
lhumerus -29.5478 6.84847 83.5279
lradius 36.5172
lwrist -0.693145
lhand -20.1567 24.3233
lfingers 7.12502
lthumb 6.18854 54.2129
rfemur -1.53596 -5.93176 19.6509
rtibia 29.5717
rfoot -20.5368 -7.08946
rtoes -9.29792
lfemur -22.0103 3.78517 -12.5849
ltibia 50.4286
lfoot -7.74048 -16.6045
ltoes -22.2044
1787
root 8.1636 17.7181 -10.4043 -361.275 -18.6968 0.774789
lowerback 15.4593 3.19069 2.47715
upperback 1.24111 4.65742 0.328405
thorax -7.15984 2.18384 -2.03282
lowerneck -18.1421 1.13262 -9.17769
upperneck 39.0392 3.80158 3.44302
head 17.0452 0.639636 3.91225
rclavicle -1.83379e-014 -1.78906e-014
rhumerus -31.9431 -12.4404 -76.9461
rradius 35.1961
rwrist 5.97073
rhand -19.418 10.1935
rfingers 7.12502
rthumb 6.90168 -19.674
lclavicle -1.83379e-014 -1.78906e-014
lhumerus -29.6614 6.69577 83.4721
lradius 36.5623
lwrist -0.859374
lhand -20.387 24.291
lfingers 7.12502
lthumb 5.96624 54.187
rfemur -1.53112 -5.59844 19.5898
rtibia 29.1225
rfoot -20.2309 -6.83954
rtoes -9.57838
lfemur -22.0165 2.95935 -11.8766
ltibia 49.8289
lfoot -8.12959 -14.9957
ltoes -21.4669
1788
root 8.21252 17.734 -10.392 -361.317 -19.0866 0.750494
lowerback 15.3796 3.09621 2.53739
upperback 1.3137 4.5374 0.320629
thorax -7.03782 2.1271 -2.04176
lowerneck -18.2998 1.15365 -9.38643
upperneck 39.2104 3.83837 3.66844
head 17.1609 0.642383 4.07094
rclavicle -2.90226e-014 -3.57812e-015
rhumerus -31.8781 -12.527 -76.8568
rradius 35.3146
rwrist 5.71402
rhand -19.7759 9.79227
rfingers 7.12502
rthumb 6.55616 -20.0862
lclavicle -2.90226e-014 -3.57812e-015
lhumerus -29.6355 6.58157 83.438
lradius 36.5161
lwrist -0.944594
lhand -20.6065 23.344
lfingers 7.12502
lthumb 5.75423 53.2459
rfemur -1.31433 -5.37069 19.4078
rtibia 28.6744
rfoot -19.9716 -6.63267
rtoes -10.0518
lfemur -21.7747 1.90085 -11.2509
ltibia 49.1349
lfoot -8.41445 -13.4519
ltoes -20.4955
1789
root 8.26359 17.7493 -10.3741 -361.546 -19.4638 0.853864
lowerback 15.4155 2.97915 2.51935
upperback 1.46417 4.37324 0.292306
thorax -6.90293 2.05135 -2.02445
lowerneck -18.299 1.18452 -9.45037
upperneck 39.1159 3.88688 3.69155
head 17.1012 0.658142 4.09496
rclavicle -1.62506e-014 3.97569e-016
rhumerus -31.8003 -12.5106 -76.7777
rradius 35.5142
rwrist 5.29589
rhand -20.3096 8.83647
rfingers 7.12502
rthumb 6.04093 -21.0574
lclavicle -1.62506e-014 3.97569e-016
lhumerus -29.5712 6.6291 83.4153
lradius 36.3892
lwrist -0.769438
lhand -21.0811 22.7121
lfingers 7.12502
lthumb 5.29604 52.626
rfemur -0.93024 -5.2388 19.053
rtibia 28.2387
rfoot -19.777 -6.36512
rtoes -10.3934
lfemur -21.3086 0.779544 -10.7996
ltibia 48.3552
lfoot -8.58027 -11.854
ltoes -20.1711
1790
root 8.31586 17.7632 -10.3589 -361.621 -20.1058 0.868862
lowerback 15.3996 2.9161 2.56557
upperback 1.63824 4.28621 0.225748
thorax -6.70291 2.01243 -2.09514
lowerneck -18.5296 1.22152 -9.28729
upperneck 38.9717 3.94475 3.5696
head 17.0834 0.69043 4.01996
rclavicle 4.35338e-014 1.19271e-015
rhumerus -31.5529 -12.5508 -76.8396
rradius 35.6916
rwrist 4.92985
rhand -20.2623 8.39798
rfingers 7.12502
rthumb 6.08656 -21.4946
lclavicle 4.35338e-014 1.19271e-015
lhumerus -29.4153 6.83362 83.2801
lradius 36.2824
lwrist -0.40114
lhand -21.8782 21.8133
lfingers 7.12502
lthumb 4.52636 51.7449
rfemur -0.731116 -4.91632 18.8016
rtibia 27.7882
rfoot -19.6174 -5.91422
rtoes -9.95753
lfemur -20.9206 -0.0266572 -10.2476
ltibia 47.5289
lfoot -8.73605 -10.5159
ltoes -19.6974
1791
root 8.369 17.7792 -10.3435 -361.608 -20.8964 0.878702
lowerback 15.3785 2.93355 2.58875
upperback 1.69573 4.3044 0.147677
thorax -6.62075 2.02181 -2.19063
lowerneck -18.666 1.28207 -9.11308
upperneck 38.9197 4.00535 3.49752
head 17.0894 0.728803 3.96833
rclavicle -1.57537e-014 -2.78299e-015
rhumerus -31.4195 -12.7319 -76.8363
rradius 35.7408
rwrist 4.68314
rhand -20.0171 8.62915
rfingers 7.12502
rthumb 6.32332 -21.2565
lclavicle -1.57537e-014 -2.78299e-015
lhumerus -29.4012 6.88049 83.1108
lradius 36.2702
lwrist -0.334043
lhand -22.0734 21.5991
lfingers 7.12502
lthumb 4.33784 51.5347
rfemur -0.668772 -4.52227 18.5439
rtibia 27.3476
rfoot -19.4248 -5.36169
rtoes -9.25181
lfemur -20.576 -0.691576 -9.69575
ltibia 46.666
lfoot -9.49291 -9.20576
ltoes -22.4485
1792
root 8.42041 17.7952 -10.3298 -361.557 -21.6702 0.808664
lowerback 15.4647 2.9876 2.5735
upperback 1.60366 4.37893 0.164318
thorax -6.76568 2.0541 -2.18869
lowerneck -18.4691 1.34522 -9.07343
upperneck 38.8381 4.06247 3.46621
head 16.9909 0.757147 3.94573
rclavicle 1.20265e-014 -9.54166e-015
rhumerus -31.5485 -12.91 -76.6346
rradius 35.7595
rwrist 4.5563
rhand -19.889 8.85873
rfingers 7.12502
rthumb 6.44695 -21.0232
lclavicle 1.20265e-014 -9.54166e-015
lhumerus -29.6299 6.78091 83.0158
lradius 36.3636
lwrist -0.49344
lhand -21.4728 22.2405
lfingers 7.12502
lthumb 4.91788 52.1634
rfemur -0.637264 -4.12019 18.3951
rtibia 26.9436
rfoot -19.1904 -4.96016
rtoes -9.71805
lfemur -20.2145 -1.32829 -9.05371
ltibia 45.7673
lfoot -10.4631 -7.93514
ltoes -26.1498
1793
root 8.4731 17.8046 -10.313 -361.463 -22.5601 0.616126
lowerback 15.5473 3.0568 2.62864
upperback 1.54965 4.48733 0.225211
thorax -6.86453 2.10269 -2.18458
lowerneck -18.4331 1.38149 -9.09148
upperneck 38.7859 4.13287 3.4089
head 16.9492 0.774981 3.93068
rclavicle -1.81888e-014 -1.03368e-014
rhumerus -31.6098 -13.062 -76.4743
rradius 35.7831
rwrist 4.60045
rhand -19.8177 9.03475
rfingers 7.12502
rthumb 6.51582 -20.845
lclavicle -1.81888e-014 -1.03368e-014
lhumerus -29.8649 6.83802 82.9442
lradius 36.4909
lwrist -0.423987
lhand -21.2992 22.6188
lfingers 7.12502
lthumb 5.08546 52.5378
rfemur -0.59484 -3.61754 18.3548
rtibia 26.5564
rfoot -19.0264 -4.50153
rtoes -10.2337
lfemur -19.7911 -1.89019 -8.28813
ltibia 44.8068
lfoot -10.647 -6.92602
ltoes -27.0013
1794
root 8.52574 17.8107 -10.2915 -361.373 -23.4628 0.540975
lowerback 15.4945 3.10128 2.61246
upperback 1.53404 4.54152 0.223351
thorax -6.85048 2.12954 -2.18563
lowerneck -18.4087 1.44878 -9.06072
upperneck 38.7245 4.24746 3.31389
head 16.9041 0.812639 3.89784
rclavicle 5.86415e-015 3.18055e-015
rhumerus -31.6049 -13.1037 -76.431
rradius 35.7791
rwrist 4.56724
rhand -19.86 9.30122
rfingers 7.12502
rthumb 6.47499 -20.5798
lclavicle 5.86415e-015 3.18055e-015
lhumerus -30.0436 7.05906 82.7815
lradius 36.5489
lwrist -0.205162
lhand -21.158 22.9802
lfingers 7.12502
lthumb 5.2218 52.8959
rfemur -0.595799 -3.12011 18.179
rtibia 26.2109
rfoot -18.9545 -3.99492
rtoes -10.4084
lfemur -19.3673 -2.56473 -7.65792
ltibia 43.7651
lfoot -10.2606 -6.09137
ltoes -25.9017
1795
root 8.57643 17.8186 -10.2682 -361.243 -24.2563 0.515471
lowerback 15.3803 3.13662 2.55387
upperback 1.47881 4.574 0.189272
thorax -6.84667 2.14643 -2.19021
lowerneck -18.3817 1.41752 -9.07726
upperneck 38.7626 4.17821 3.3481
head 16.9222 0.78083 3.90357
rclavicle 3.13583e-014 -1.98785e-015
rhumerus -31.762 -12.9325 -76.4606
rradius 36.0502
rwrist 4.16203
rhand -19.9391 9.14397
rfingers 7.12502
rthumb 6.39861 -20.7394
lclavicle 3.13583e-014 -1.98785e-015
lhumerus -30.1734 7.19537 82.5795
lradius 36.5049
lwrist -0.0553061
lhand -20.8912 23.2571
lfingers 7.12502
lthumb 5.47937 53.1663
rfemur -0.699408 -2.81246 17.9431
rtibia 25.964
rfoot -18.9153 -3.42605
rtoes -10.2495
lfemur -18.9732 -3.28547 -7.07513
ltibia 42.6369
lfoot -9.82281 -5.45568
ltoes -23.7612
1796
root 8.6294 17.8244 -10.2449 -361.062 -24.8811 0.47969
lowerback 15.1893 3.09216 2.4971
upperback 1.45784 4.50046 0.181985
thorax -6.771 2.11422 -2.13962
lowerneck -18.641 1.29994 -9.26873
upperneck 38.9984 4.0049 3.57912
head 17.1182 0.694562 4.02988
rclavicle -1.2275e-014 2.0276e-014
rhumerus -31.8091 -12.6256 -76.5353
rradius 36.3702
rwrist 3.81939
rhand -19.8861 8.88896
rfingers 7.12502
rthumb 6.44981 -20.9928
lclavicle -1.2275e-014 2.0276e-014
lhumerus -30.1786 7.46388 82.4092
lradius 36.337
lwrist -0.0623642
lhand -21.1443 22.9929
lfingers 7.12502
lthumb 5.23498 52.9082
rfemur -0.891348 -2.67833 17.7016
rtibia 25.7958
rfoot -18.7775 -2.88186
rtoes -10.9121
lfemur -18.6611 -4.03286 -6.48248
ltibia 41.4389
lfoot -9.2931 -5.08455
ltoes -21.1247
1797
root 8.68399 17.8256 -10.2224 -360.88 -25.3961 0.446182
lowerback 14.9912 3.01479 2.44011
upperback 1.45986 4.38394 0.191286
thorax -6.67004 2.06196 -2.06187
lowerneck -18.7667 1.26403 -9.35595
upperneck 39.002 3.96755 3.63017
head 17.1519 0.668367 4.06466
rclavicle 4.89507e-014 5.1684e-015
rhumerus -31.7216 -12.3927 -76.5842
rradius 36.5187
rwrist 3.70833
rhand -19.9152 8.6483
rfingers 7.12502
rthumb 6.42169 -21.2344
lclavicle 4.89507e-014 5.1684e-015
lhumerus -30.1642 7.64148 82.3102
lradius 36.2139
lwrist -0.0895149
lhand -21.4181 22.9683
lfingers 7.12502
lthumb 4.97064 52.89
rfemur -1.11669 -2.59592 17.4604
rtibia 25.6812
rfoot -18.6517 -2.49207
rtoes -12.0116
lfemur -18.3754 -4.84382 -5.90005
ltibia 40.1839
lfoot -8.67878 -4.87789
ltoes -19.1279
